<svg version="1.0" xmlns="http://www.w3.org/2000/svg"
 width="200.000000pt" height="70.000000pt" viewBox="0 0 200.000000 70.000000"
 preserveAspectRatio="xMidYMid meet">

<g transform="translate(0.000000,70.000000) scale(0.100000,-0.100000)"
fill="#fff" stroke="none">
<path d="M119 657 c-126 -67 -146 -238 -38 -331 40 -34 102 -56 158 -56 17 0
31 -2 31 -5 0 -2 -18 -39 -41 -81 -30 -57 -39 -84 -34 -103 6 -26 31 -59 38
-50 22 24 207 393 212 421 15 80 -44 178 -127 212 -57 24 -146 21 -199 -7z
m181 -68 c155 -87 29 -303 -135 -230 -37 16 -50 29 -66 66 -14 31 -18 56 -14
73 23 96 128 140 215 91z"/>
<path d="M175 580 c-12 -4 -27 -16 -35 -25 -14 -17 -12 -18 30 -11 69 11 93 8
113 -15 10 -12 16 -23 15 -25 -3 -3 -114 -12 -161 -13 -27 -1 -28 -3 -22 -33
19 -87 124 -123 186 -64 20 18 21 21 7 24 -9 2 -26 -2 -37 -7 -33 -18 -70 -12
-98 15 -32 32 -25 40 22 23 28 -11 40 -11 55 -1 11 7 36 12 55 12 32 0 35 2
35 31 0 47 -56 99 -106 98 -22 0 -48 -4 -59 -9z"/>
<path d="M480 350 l0 -101 62 3 c78 4 95 28 19 28 -50 0 -51 1 -51 30 0 29 2
30 45 30 33 0 45 4 45 15 0 11 -12 15 -45 15 -43 0 -45 1 -45 30 0 29 2 30 45
30 25 0 45 5 45 10 0 6 -27 10 -60 10 l-60 0 0 -100z"/>
<path d="M790 430 c0 -10 -8 -23 -17 -29 -17 -9 -17 -11 -1 -23 12 -9 18 -30
20 -68 3 -48 6 -55 26 -58 22 -3 30 12 12 23 -5 3 -10 28 -10 56 0 37 4 49 15
49 8 0 15 5 15 10 0 6 -7 10 -15 10 -9 0 -15 9 -15 25 0 16 -6 25 -15 25 -8 0
-15 -9 -15 -20z"/>
<path d="M1040 430 c0 -10 -8 -23 -17 -29 -17 -9 -17 -11 -1 -23 12 -9 18 -30
20 -68 3 -48 6 -55 26 -58 22 -3 30 12 12 23 -5 3 -10 28 -10 56 0 37 4 49 15
49 8 0 15 5 15 10 0 6 -7 10 -15 10 -9 0 -15 9 -15 25 0 16 -6 25 -15 25 -8 0
-15 -9 -15 -20z"/>
<path d="M1297 438 c-9 -7 -19 -25 -22 -40 -9 -38 33 -81 70 -72 20 5 25 3 25
-14 0 -31 -23 -45 -54 -31 -32 15 -48 3 -22 -17 32 -23 73 -18 92 11 24 37 24
128 0 154 -21 23 -64 27 -89 9z m63 -22 c6 -8 10 -25 8 -38 -2 -17 -10 -23
-28 -23 -20 0 -26 6 -28 29 -5 40 25 59 48 32z"/>
<path d="M1446 428 c-9 -12 -16 -26 -16 -30 0 -15 26 -8 43 12 21 25 33 25 47
0 9 -16 3 -28 -40 -75 -68 -75 -66 -85 15 -85 51 0 65 3 65 15 0 11 -12 15
-47 15 l-47 0 47 48 c26 26 47 57 47 68 0 51 -85 74 -114 32z"/>
<path d="M662 399 c-38 -15 -26 -60 21 -82 20 -9 37 -22 37 -27 0 -17 -29 -23
-45 -10 -8 6 -22 10 -31 8 -17 -3 -17 -4 0 -20 35 -35 106 -16 106 28 0 21 -8
29 -40 41 -22 9 -40 22 -40 30 0 16 37 18 42 2 2 -6 12 -10 21 -8 15 3 16 7 5
20 -17 22 -48 30 -76 18z"/>
<path d="M899 391 c-27 -22 -18 -42 11 -23 29 18 50 15 50 -8 0 -15 -7 -20
-29 -20 -29 0 -61 -22 -61 -41 0 -6 5 -19 10 -29 8 -16 21 -19 65 -18 l55 2 0
56 c0 31 -6 64 -12 73 -21 27 -61 31 -89 8z m64 -90 c-10 -37 -53 -37 -53 0 0
14 7 19 29 19 24 0 28 -4 24 -19z"/>
<path d="M1152 400 c-45 -18 -54 -118 -12 -140 30 -16 65 -12 85 10 18 19 17
20 -1 20 -11 0 -25 -5 -32 -12 -8 -8 -15 -8 -27 2 -29 24 -18 40 30 40 43 0
45 1 45 29 0 43 -43 68 -88 51z m56 -42 c3 -14 -3 -18 -27 -18 -29 0 -41 17
-24 34 13 13 48 1 51 -16z"/>
<path d="M1668 339 c-21 -12 -24 -59 -6 -77 16 -16 43 -15 58 3 14 17 0 21
-17 4 -17 -17 -33 -1 -33 32 0 30 17 38 38 17 6 -6 14 -9 17 -6 6 6 -22 38
-33 38 -4 0 -15 -5 -24 -11z"/>
<path d="M1756 337 c-22 -16 -18 -65 7 -81 40 -25 80 52 41 81 -10 7 -21 13
-24 13 -3 0 -14 -6 -24 -13z m44 -37 c0 -23 -4 -30 -20 -30 -14 0 -20 7 -20
23 0 27 7 37 27 37 8 0 13 -12 13 -30z"/>
<path d="M1873 343 c-20 -4 -23 -11 -23 -49 0 -54 18 -59 22 -6 2 25 8 37 18
37 10 0 16 -12 18 -37 4 -51 22 -49 22 2 0 29 4 40 15 40 11 0 15 -11 15 -40
0 -22 5 -40 10 -40 6 0 10 20 10 44 0 47 -12 60 -42 45 -10 -6 -19 -5 -23 1
-3 5 -9 9 -13 9 -4 -1 -17 -4 -29 -6z"/>
<path d="M112 229 c19 -35 41 -75 48 -88 12 -23 13 -22 47 38 19 34 33 64 31
65 -1 2 -30 10 -63 18 -33 8 -69 19 -79 23 -16 7 -14 -3 16 -56z"/>
<path d="M1590 270 c0 -11 7 -20 15 -20 8 0 15 9 15 20 0 11 -7 20 -15 20 -8
0 -15 -9 -15 -20z"/>
<path d="M983 184 c-4 -11 2 -23 16 -33 23 -17 19 -34 -5 -24 -8 3 -14 0 -14
-6 0 -17 36 -13 51 5 11 14 9 19 -11 35 -22 16 -21 24 3 20 4 0 7 4 7 9 0 17
-40 11 -47 -6z"/>
<path d="M1497 193 c-9 -15 -25 -83 -20 -83 3 0 12 8 19 17 13 17 15 17 25 1
20 -34 28 -18 12 27 -14 42 -26 55 -36 38z m18 -33 c3 -5 1 -10 -4 -10 -6 0
-11 5 -11 10 0 6 2 10 4 10 3 0 8 -4 11 -10z"/>
<path d="M1700 155 c0 -41 2 -45 24 -45 47 0 60 54 15 69 -12 4 -12 2 0 -12 7
-9 11 -24 7 -33 -7 -19 -28 -8 -25 14 3 33 -1 52 -11 52 -5 0 -10 -20 -10 -45z"/>
<path d="M1648 185 c-8 -8 6 -68 17 -72 6 -2 10 14 9 34 -1 34 -13 51 -26 38z"/>
<path d="M1060 171 c0 -6 7 -8 15 -5 8 4 15 2 15 -4 0 -5 -9 -12 -21 -15 -29
-8 -19 -31 15 -35 26 -3 27 -1 24 30 -2 25 -8 34 -25 36 -13 2 -23 -1 -23 -7z
m30 -41 c0 -5 -4 -10 -10 -10 -5 0 -10 5 -10 10 0 6 5 10 10 10 6 0 10 -4 10
-10z"/>
<path d="M1130 176 c0 -1 5 -17 11 -35 8 -24 8 -35 -1 -46 -8 -10 -9 -15 -2
-15 13 0 31 30 42 71 10 34 -4 40 -15 7 l-8 -23 -4 23 c-2 12 -9 22 -14 22 -5
0 -9 -2 -9 -4z"/>
<path d="M1210 171 c0 -6 7 -8 15 -5 8 4 15 2 15 -4 0 -5 -9 -12 -21 -15 -29
-8 -19 -31 15 -35 26 -3 27 -1 24 30 -2 25 -8 34 -25 36 -13 2 -23 -1 -23 -7z
m30 -41 c0 -5 -4 -10 -10 -10 -5 0 -10 5 -10 10 0 6 5 10 10 10 6 0 10 -4 10
-10z"/>
<path d="M1349 164 c-16 -19 -1 -47 27 -52 18 -4 18 -3 -1 12 -20 15 -20 15 3
16 24 0 28 10 10 28 -16 16 -23 15 -39 -4z m26 -4 c3 -5 1 -10 -4 -10 -6 0
-11 5 -11 10 0 6 2 10 4 10 3 0 8 -4 11 -10z"/>
<path d="M1570 159 c-13 -23 2 -49 28 -49 13 0 12 3 -4 15 -18 14 -18 14 5 15
17 0 22 4 17 16 -3 9 -6 18 -6 20 0 13 -31 1 -40 -17z m30 1 c0 -5 -5 -10 -11
-10 -5 0 -7 5 -4 10 3 6 8 10 11 10 2 0 4 -4 4 -10z"/>
<path d="M1790 171 c0 -6 7 -8 15 -5 8 4 15 2 15 -4 0 -5 -9 -12 -21 -15 -29
-8 -19 -31 15 -35 26 -3 27 -1 24 30 -2 25 -8 34 -25 36 -13 2 -23 -1 -23 -7z
m30 -41 c0 -5 -4 -10 -10 -10 -5 0 -10 5 -10 10 0 6 5 10 10 10 6 0 10 -4 10
-10z"/>
<path d="M1870 169 c0 -5 4 -8 9 -4 5 3 12 1 15 -4 3 -5 -4 -11 -15 -14 -29
-8 -19 -31 14 -35 21 -3 27 1 27 17 0 33 -11 51 -31 51 -10 0 -19 -5 -19 -11z
m30 -33 c0 -3 -4 -8 -10 -11 -5 -3 -10 -1 -10 4 0 6 5 11 10 11 6 0 10 -2 10
-4z"/>
<path d="M1940 145 c0 -19 5 -35 10 -35 6 0 10 11 10 25 0 14 5 25 10 25 6 0
10 5 10 10 0 6 -9 10 -20 10 -16 0 -20 -7 -20 -35z"/>
<path d="M1288 143 c7 -3 16 -2 19 1 4 3 -2 6 -13 5 -11 0 -14 -3 -6 -6z"/>
<path d="M1428 143 c7 -3 16 -2 19 1 4 3 -2 6 -13 5 -11 0 -14 -3 -6 -6z"/>
</g>
</svg>
