<svg width="224" height="60" viewBox="0 0 224 60" fill="none" xmlns="http://www.w3.org/2000/svg">
<g clip-path="url(#clip0_206_10695)">
<path d="M27.692 59.4198C29.46 59.7718 31.28 59.9718 33.14 59.9998C46.116 60.1798 57.236 52.1518 61.648 40.7758H62.472C63.868 40.7758 65.124 39.9398 65.676 38.6598C66.392 37.0038 67.14 34.2358 67.14 29.8958C67.14 25.5558 66.396 22.7878 65.676 21.1318C65.12 19.8518 63.868 19.0158 62.472 19.0158H61.648C57.72 8.86384 48.444 1.37984 37.276 0.0118363C36.648 -0.0641636 36.028 0.263836 35.752 0.835836C35.36 1.64784 34.532 2.20784 33.572 2.20784C32.612 2.20784 31.78 1.64784 31.392 0.835836C31.116 0.263836 30.5 -0.0641636 29.872 0.0118363C18.704 1.37984 9.428 8.86384 5.492 19.0118H4.668C3.272 19.0118 2.016 19.8478 1.464 21.1278C0.748 22.7838 0 25.5518 0 29.8918C0 34.2318 0.744 36.9998 1.464 38.6558C2.02 39.9358 3.272 40.7718 4.668 40.7718H5.516C9.208 50.2038 17.54 57.3838 27.688 59.4158L27.692 59.4198Z" fill="#EC008C"/>
<path d="M33.6237 53.424C45.8822 53.424 55.8197 45.2326 55.8197 35.128C55.8197 25.0234 45.8822 16.832 33.6237 16.832C21.3652 16.832 11.4277 25.0234 11.4277 35.128C11.4277 45.2326 21.3652 53.424 33.6237 53.424Z" fill="white"/>
<path d="M22.3249 30.8076C19.3609 30.8076 16.9609 33.2076 16.9609 36.1716C16.9609 39.1356 19.3609 41.5356 22.3249 41.5356C25.2889 41.5356 27.6889 39.1356 27.6889 36.1716C27.6889 33.2076 25.2889 30.8076 22.3249 30.8076ZM24.1409 35.6516C23.3769 35.6516 22.7569 35.0316 22.7569 34.2676C22.7569 33.5036 23.3769 32.8836 24.1409 32.8836C24.9049 32.8836 25.5249 33.5036 25.5249 34.2676C25.5249 35.0316 24.9049 35.6516 24.1409 35.6516Z" fill="#EC008C"/>
<path d="M45.3406 30.8076C42.3766 30.8076 39.9766 33.2076 39.9766 36.1716C39.9766 39.1356 42.3766 41.5356 45.3406 41.5356C48.3046 41.5356 50.7046 39.1356 50.7046 36.1716C50.7046 33.2076 48.3046 30.8076 45.3406 30.8076ZM47.3286 35.6516C46.5646 35.6516 45.9446 35.0316 45.9446 34.2676C45.9446 33.5036 46.5646 32.8836 47.3286 32.8836C48.0926 32.8836 48.7126 33.5036 48.7126 34.2676C48.7126 35.0316 48.0926 35.6516 47.3286 35.6516Z" fill="#EC008C"/>
<path d="M94.6804 44.6595C86.4444 44.6595 80.4004 38.2915 80.4004 29.8955C80.4004 21.4995 86.4484 15.7275 94.6804 15.7275H103.28C111.792 15.7275 117.68 21.4995 117.68 29.8955C117.68 38.2915 111.632 44.6595 103.28 44.6595H94.6804ZM103.28 38.4515C108.092 38.4515 111.476 34.9875 111.476 30.2155C111.476 25.4435 108.096 21.9395 103.28 21.9395H94.6804C90.0244 21.9395 86.6044 25.4035 86.6044 30.2155C86.6044 35.0275 89.9844 38.4515 94.6804 38.4515H103.28Z" fill="#262262"/>
<path d="M136.089 44.6595C127.853 44.6595 121.809 38.2915 121.809 29.8955C121.809 21.4995 127.857 15.7275 136.089 15.7275H150.617C152.329 15.7275 153.721 17.1155 153.721 18.8315C153.721 20.5475 152.333 21.9355 150.617 21.9355H136.089C131.433 21.9355 128.013 25.3995 128.013 30.2115C128.013 35.0235 131.393 38.4475 136.089 38.4475H150.617C152.329 38.4475 153.721 39.8355 153.721 41.5515C153.721 43.2675 152.333 44.6555 150.617 44.6555H136.089V44.6595Z" fill="#262262"/>
<path d="M169.757 44.6595C161.521 44.6595 155.477 38.2915 155.477 29.8955C155.477 21.4995 161.525 15.7275 169.757 15.7275H184.525C186.237 15.7275 187.629 17.1155 187.629 18.8315C187.629 20.5475 186.241 21.9355 184.525 21.9355H169.757C165.101 21.9355 161.681 25.3995 161.681 30.2115C161.681 35.0235 165.061 38.4475 169.757 38.4475H184.525C186.237 38.4475 187.629 39.8355 187.629 41.5515C187.629 43.2675 186.241 44.6555 184.525 44.6555H169.757V44.6595Z" fill="#262262"/>
<path d="M204.371 41.5555V34.1555L191.779 20.9675C190.067 18.8755 191.555 15.7315 194.259 15.7315C195.239 15.7315 196.163 16.1795 196.771 16.9475L207.715 28.5035L218.587 16.8795C219.163 16.1515 220.039 15.7275 220.963 15.7275C223.523 15.7275 224.931 18.7035 223.307 20.6835L210.575 34.1515V41.5515C210.575 43.2675 209.187 44.6555 207.471 44.6555C205.759 44.6555 204.367 43.2675 204.367 41.5515L204.371 41.5555Z" fill="#262262"/>
</g>
<defs>
<clipPath id="clip0_206_10695">
<rect width="224" height="60" fill="white"/>
</clipPath>
</defs>
</svg>
