<svg width="82" height="19" viewBox="0 0 82 19" fill="none" xmlns="http://www.w3.org/2000/svg">
    <path d="M14.175 0.325V3.725H9.375V18H5.075V3.725H0.325V0.325H14.175ZM25.677 7.45V11H14.652V7.45H25.677ZM38.8311 14.725H44.5311V18H34.5561V0.325H38.8311V14.725ZM50.7695 0.325V18H46.4945V0.325H50.7695ZM66.4211 13.025C66.4211 13.9583 66.1794 14.8167 65.6961 15.6C65.2294 16.3833 64.5294 17.0083 63.5961 17.475C62.6794 17.9417 61.5628 18.175 60.2461 18.175C58.2628 18.175 56.6294 17.6917 55.3461 16.725C54.0628 15.7583 53.3628 14.4083 53.2461 12.675H57.7961C57.8628 13.3417 58.0961 13.8667 58.4961 14.25C58.9128 14.6333 59.4378 14.825 60.0711 14.825C60.6211 14.825 61.0544 14.675 61.3711 14.375C61.6878 14.075 61.8461 13.675 61.8461 13.175C61.8461 12.725 61.6961 12.35 61.3961 12.05C61.1128 11.75 60.7544 11.5083 60.3211 11.325C59.8878 11.125 59.2878 10.8917 58.5211 10.625C57.4044 10.2417 56.4878 9.875 55.7711 9.525C55.0711 9.15833 54.4628 8.625 53.9461 7.925C53.4461 7.20833 53.1961 6.28333 53.1961 5.15C53.1961 4.1 53.4628 3.19167 53.9961 2.425C54.5294 1.65833 55.2628 1.075 56.1961 0.675C57.1461 0.258332 58.2294 0.0499986 59.4461 0.0499986C61.4128 0.0499986 62.9711 0.516665 64.1211 1.45C65.2878 2.38333 65.9461 3.66667 66.0961 5.3H61.4711C61.3878 4.71667 61.1711 4.25833 60.8211 3.925C60.4878 3.575 60.0294 3.4 59.4461 3.4C58.9461 3.4 58.5378 3.53333 58.2211 3.8C57.9211 4.06667 57.7711 4.45833 57.7711 4.975C57.7711 5.39167 57.9044 5.75 58.1711 6.05C58.4544 6.33333 58.8044 6.56667 59.2211 6.75C59.6378 6.93333 60.2378 7.16667 61.0211 7.45C62.1544 7.83333 63.0794 8.21667 63.7961 8.6C64.5128 8.96667 65.1294 9.50833 65.6461 10.225C66.1628 10.9417 66.4211 11.875 66.4211 13.025ZM81.4846 0.325V3.725H76.6846V18H72.3846V3.725H67.6346V0.325H81.4846Z" fill="#E79418"/>
    </svg>
    